<?xml version="1.0"?>
<svg width="1024" height="1024" xmlns="http://www.w3.org/2000/svg" xmlns:svg="http://www.w3.org/2000/svg">
 <!-- Created with SVG-edit - https://github.com/SVG-Edit/svgedit-->
 <g class="layer">
  <title>Layer 1</title>
  <g id="svg_2">
   <g id="svg_17">
    <ellipse cx="220.34" cy="638.93" fill="#191919" id="svg_6" rx="120.84" ry="192.27" stroke="#191919" stroke-width="5"/>
    <rect fill="#191919" height="315.3" id="svg_1" stroke="#191919" stroke-width="5" width="660.75" x="168.79" y="483.41"/>
    <ellipse cx="497.5" cy="788.07" fill="#191919" id="svg_9" rx="340.35" ry="96.93" stroke="#191919" stroke-width="5"/>
    <ellipse cx="498.61" cy="491.93" fill="#191919" id="svg_5" rx="340.35" ry="96.93" stroke="#191919" stroke-width="5"/>
    <ellipse cx="774.66" cy="638.93" fill="#191919" id="svg_10" rx="120.84" ry="192.27" stroke="#191919" stroke-width="5"/>
   </g>
   <g id="svg_18" transform="matrix(-0.0056268 1.0652 -1.10862 -0.00540644 1061.73 283.516)">
    <ellipse cx="262.04" cy="655.23" fill="#191919" id="svg_19" rx="33.55" ry="60.04" stroke="#191919" stroke-width="5"/>
    <rect fill="#191919" height="98.45" id="svg_20" stroke="#191919" stroke-width="5" width="183.43" x="247.73" y="606.67"/>
    <ellipse cx="338.98" cy="701.8" fill="#191919" id="svg_21" rx="94.49" ry="30.27" stroke="#191919" stroke-width="5"/>
    <ellipse cx="339.29" cy="609.33" fill="#191919" id="svg_22" rx="94.49" ry="30.27" stroke="#191919" stroke-width="5"/>
    <ellipse cx="415.92" cy="655.23" fill="#191919" id="svg_23" rx="33.55" ry="60.04" stroke="#191919" stroke-width="5"/>
   </g>
   <g id="svg_24" transform="matrix(-0.0056268 1.0652 -1.10862 -0.00540644 1394.73 -38.0013)">
    <ellipse cx="562.38" cy="653.74" fill="#191919" id="svg_25" rx="33.55" ry="60.04" stroke="#191919" stroke-width="5"/>
    <rect fill="#191919" height="98.45" id="svg_26" stroke="#191919" stroke-width="5" width="183.43" x="548.06" y="605.18"/>
    <ellipse cx="639.32" cy="700.3" fill="#191919" id="svg_27" rx="94.49" ry="30.27" stroke="#191919" stroke-width="5"/>
    <ellipse cx="639.63" cy="607.84" fill="#191919" id="svg_28" rx="94.49" ry="30.27" stroke="#191919" stroke-width="5"/>
    <ellipse cx="716.26" cy="653.74" fill="#191919" id="svg_29" rx="33.55" ry="60.04" stroke="#191919" stroke-width="5"/>
   </g>
  </g>
  <g id="svg_7" transform="matrix(1 0 0 1 0 0)">
   <rect fill="#191919" height="62.97" id="svg_3" stroke="#191919" stroke-width="5" transform="rotate(-44.6869 256.723 229.764)" width="190.78" x="161.33" y="198.28"/>
   <rect fill="#191919" height="64.4" id="svg_4" stroke="#191919" stroke-width="5" transform="matrix(0.70708 0.707133 -0.707133 0.70708 295.151 -276.021)" width="190.78" x="234.75" y="352.23"/>
  </g>
  <g id="svg_15">
   <ellipse cx="638.79" cy="183.11" fill="#ff0000" id="svg_8" rx="53.81" ry="50.98" stroke="#ff0000" stroke-width="5"/>
   <ellipse cx="731.35" cy="184.15" fill="#ff0000" id="svg_12" rx="53.81" ry="50.98" stroke="#ff0000" stroke-width="5"/>
   <ellipse cx="663.54" cy="235.76" fill="#ff0000" id="svg_13" rx="46.95" ry="87.86" stroke="#ff0000" stroke-width="5" transform="matrix(0.886532 -0.589893 0.61021 0.857014 -79.8268 421.126)"/>
   <ellipse cx="728.77" cy="236.07" fill="#ff0000" id="svg_14" rx="44.58" ry="86.31" stroke="#ff0000" stroke-width="5" transform="matrix(0.925732 0.530645 -0.548922 0.894909 177.426 -365.898)"/>
  </g>
  <g id="svg_16" transform="rotate(89.1648 306.098 643.513)">
   <g id="svg_30">
    <ellipse cx="213.14" cy="643.14" fill="#ffffff" id="svg_31" rx="40.53" ry="67.1" stroke="#ffffff" stroke-width="5"/>
    <rect fill="#ffffff" height="110.03" id="svg_32" stroke="#ffffff" stroke-width="5" width="221.6" x="195.85" y="588.87"/>
    <ellipse cx="306.1" cy="695.18" fill="#ffffff" id="svg_33" rx="114.15" ry="33.83" stroke="#ffffff" stroke-width="5"/>
    <ellipse cx="306.47" cy="591.84" fill="#ffffff" id="svg_34" rx="114.15" ry="33.83" stroke="#ffffff" stroke-width="5"/>
    <ellipse cx="399.05" cy="643.14" fill="#ffffff" id="svg_35" rx="40.53" ry="67.1" stroke="#ffffff" stroke-width="5"/>
   </g>
   <g id="svg_36" transform="matrix(-0.00188713 0.371733 -0.371813 -0.00188674 864.271 272.764)">
    <ellipse cx="929.75" cy="1644.11" fill="#ffffff" id="svg_37" rx="33.55" ry="60.04" stroke="#ffffff" stroke-width="5"/>
    <rect fill="#ffffff" height="98.45" id="svg_38" stroke="#ffffff" stroke-width="5" width="183.43" x="915.44" y="1595.55"/>
    <ellipse cx="1006.69" cy="1690.68" fill="#ffffff" id="svg_39" rx="94.49" ry="30.27" stroke="#ffffff" stroke-width="5"/>
    <ellipse cx="1007" cy="1598.21" fill="#ffffff" id="svg_40" rx="94.49" ry="30.27" stroke="#ffffff" stroke-width="5"/>
    <ellipse cx="1083.63" cy="1644.11" fill="#ffffff" id="svg_41" rx="33.55" ry="60.04" stroke="#ffffff" stroke-width="5"/>
   </g>
   <g id="svg_42" transform="matrix(-0.00188713 0.371733 -0.371813 -0.00188674 975.953 160.561)">
    <ellipse cx="1230.08" cy="1642.62" fill="#ffffff" id="svg_43" rx="33.55" ry="60.04" stroke="#ffffff" stroke-width="5"/>
    <rect fill="#ffffff" height="98.45" id="svg_44" stroke="#ffffff" stroke-width="5" width="183.43" x="1215.77" y="1594.06"/>
    <ellipse cx="1307.03" cy="1689.19" fill="#ffffff" id="svg_45" rx="94.49" ry="30.27" stroke="#ffffff" stroke-width="5"/>
    <ellipse cx="1307.34" cy="1596.72" fill="#ffffff" id="svg_46" rx="94.49" ry="30.27" stroke="#ffffff" stroke-width="5"/>
    <ellipse cx="1383.97" cy="1642.62" fill="#ffffff" id="svg_47" rx="33.55" ry="60.04" stroke="#ffffff" stroke-width="5"/>
   </g>
  </g>
  <g id="svg_48" transform="rotate(89.1648 679.003 638.998)">
   <g id="svg_49">
    <ellipse cx="586.05" cy="638.63" fill="#ffffff" id="svg_50" rx="40.53" ry="67.1" stroke="#ffffff" stroke-width="5"/>
    <rect fill="#ffffff" height="110.03" id="svg_51" stroke="#ffffff" stroke-width="5" width="221.6" x="568.76" y="584.35"/>
    <ellipse cx="679" cy="690.67" fill="#ffffff" id="svg_52" rx="114.15" ry="33.83" stroke="#ffffff" stroke-width="5"/>
    <ellipse cx="679.37" cy="587.33" fill="#ffffff" id="svg_53" rx="114.15" ry="33.83" stroke="#ffffff" stroke-width="5"/>
    <ellipse cx="771.96" cy="638.63" fill="#ffffff" id="svg_54" rx="40.53" ry="67.1" stroke="#ffffff" stroke-width="5"/>
   </g>
   <g id="svg_55" transform="matrix(-0.00188713 0.371733 -0.371813 -0.00188674 864.271 272.764)">
    <ellipse cx="912.51" cy="641.27" fill="#ffffff" id="svg_56" rx="33.55" ry="60.04" stroke="#ffffff" stroke-width="5"/>
    <rect fill="#ffffff" height="98.45" id="svg_57" stroke="#ffffff" stroke-width="5" width="183.43" x="898.2" y="592.7"/>
    <ellipse cx="989.45" cy="687.83" fill="#ffffff" id="svg_58" rx="94.49" ry="30.27" stroke="#ffffff" stroke-width="5"/>
    <ellipse cx="989.76" cy="595.37" fill="#ffffff" id="svg_59" rx="94.49" ry="30.27" stroke="#ffffff" stroke-width="5"/>
    <ellipse cx="1066.4" cy="641.27" fill="#ffffff" id="svg_60" rx="33.55" ry="60.04" stroke="#ffffff" stroke-width="5"/>
   </g>
   <g id="svg_61" transform="matrix(-0.00188713 0.371733 -0.371813 -0.00188674 975.953 160.561)">
    <ellipse cx="1212.85" cy="639.77" fill="#ffffff" id="svg_62" rx="33.55" ry="60.04" stroke="#ffffff" stroke-width="5"/>
    <rect fill="#ffffff" height="98.45" id="svg_63" stroke="#ffffff" stroke-width="5" width="183.43" x="1198.54" y="591.21"/>
    <ellipse cx="1289.79" cy="686.34" fill="#ffffff" id="svg_64" rx="94.49" ry="30.27" stroke="#ffffff" stroke-width="5"/>
    <ellipse cx="1290.1" cy="593.87" fill="#ffffff" id="svg_65" rx="94.49" ry="30.27" stroke="#ffffff" stroke-width="5"/>
    <ellipse cx="1366.74" cy="639.77" fill="#ffffff" id="svg_66" rx="33.55" ry="60.04" stroke="#ffffff" stroke-width="5"/>
   </g>
  </g>
 </g>
</svg>